<svg xmlns="http://www.w3.org/2000/svg" width="160" height="144" viewBox="0 0 160 144" fill="none"><path d="M57.2714 60.8677C56.8888 57.5219 59.0373 54.8096 61.552 52.7442C66.4666 48.7073 70.8463 44.8575 76.7779 42.4385C78.8209 41.6052 80.8629 40.9303 83.0837 42.0901C86.9519 35.8005 93.433 35.716 99.7144 34.2306C100.557 34.0312 101.404 33.2879 102.165 32.8333C104.15 31.6466 106.065 30.7158 108.291 29.34C108.268 24.7813 110.285 19.5142 112.213 14.9266C114.698 9.01111 119.379 5.72487 124.809 2.87328C134.696 -2.31989 142.59 3.43386 147.156 12.0495C149.482 16.4383 151.233 21.6993 151.468 26.639C151.495 27.2148 151.795 27.3519 152.17 27.8621C152.872 28.8167 153.974 29.5486 154.539 30.5706C157.087 35.1846 158.534 40.7637 158.589 46.121C158.621 49.2489 159.318 52.4467 159.128 55.5557C158.984 57.8997 158.054 60.0415 157.298 62.2819C156.874 63.5369 156.731 64.3545 157.477 65.4268C158.937 67.5259 158.68 69.4992 157.836 71.7167C153.829 82.2437 147.199 92.1667 140.534 101.066C139.504 102.442 138.469 103.915 138.263 105.608C137.305 113.511 131.95 118.056 125.586 121.767C118.963 125.629 112.348 130.055 105.72 133.907C104 134.907 102.384 135.461 100.819 136.701C95.038 141.283 89.2432 141.896 82.3427 139.931C81.468 139.681 80.0806 139.864 79.1898 140.105C73.4556 141.656 67.7224 143.844 61.6772 143.596C58.1087 143.45 55.3168 142.033 52.3005 140.013C48.5163 137.478 43.8718 135.083 39.5913 133.459C32.5334 130.782 25.4 128.588 19.4331 123.846C18.2924 122.94 17.6514 120.589 17.5874 119.216C17.369 114.537 13.9556 111.634 11.2659 108.208C8.88833 105.179 6.55915 102.31 4.42164 99.1218C1.35758 94.5527 -0.484477 89.2554 0.371201 83.5714C1.28186 77.5221 5.93525 72.1124 12.0033 71.2559C17.0585 70.5425 22.6545 70.4953 27.7677 70.3849C31.3949 70.3065 33.9052 73.1967 36.8831 74.929C37.4452 75.2561 38.4109 74.6251 39.0721 74.4926C41.0904 74.0877 43.3332 73.0444 44.9369 71.9602C46.4858 70.9131 47.7707 69.3802 49.1356 67.9424C51.673 65.2692 53.4763 62.0665 57.2714 60.8677ZM72.3491 70.1302C72.2609 70.1899 71.4738 69.8082 71.3853 69.8679C70.8056 69.0906 70.5028 68.2359 69.9806 67.4217C68.3237 64.8387 66.5637 62.3289 64.8025 59.8207C64.0331 58.7249 63.5666 57.852 62.4339 57.1122C62.0688 56.8737 60.7283 57.1518 60.2448 57.5486C59.9617 57.7809 59.5078 59.0641 59.7219 59.4704C65.752 70.9182 72.0037 83.0383 78.1634 94.4166C83.7695 104.773 87.3003 116.05 89.8581 127.527C90.6481 131.072 92.3558 134.109 93.288 137.749C95.3758 136.721 94.5439 135.396 94.3338 133.905C93.6481 129.039 93.0762 123.72 92.211 118.879C92.0742 118.113 91.9415 117.455 91.77 116.695C91.9546 116.644 91.5854 116.746 91.77 116.695C92.0147 117.2 92.3238 117.386 92.4724 117.918C93.315 120.934 94.3345 123.907 95.2 126.916C95.858 129.205 96.4533 131.613 97.4867 133.731C98.3224 135.443 99.7987 135.355 100.64 133.557C101.906 130.847 101.805 127.995 100.803 125.345C98.7034 119.788 96.0694 114.524 93.8615 109.008C93.6678 108.524 93.3163 108.284 93.1591 107.785C93.9383 108.189 94.5544 108.684 94.8253 109.27C97.2879 114.593 99.5952 119.31 102.029 124.646C102.333 125.314 103.106 126.439 103.433 127.093C104.502 129.224 105.791 128.806 107.55 127.181C108.616 126.196 109.922 125.634 111.226 125.085C113.674 124.052 115.485 123.508 118.055 122.814C121.388 121.914 122.051 121.151 120.326 118.272C118.454 115.15 116.666 111.556 114.706 108.487C116.827 110.256 118.48 112.292 120.407 114.166C121.861 115.58 123.634 117.631 125.406 118.622C125.955 118.93 127.137 117.665 127.857 117.225C128.035 117.116 127.819 115.564 127.416 115.041C126.61 113.998 125.006 113.027 124.083 112.07C120.637 108.497 117.788 105.777 114.347 102.197C114.531 102.016 114.425 101.417 114.609 101.236C116.526 103.069 118.208 105.327 120.31 106.916C123.148 109.062 126.06 110.682 129.164 112.421C130.352 113.086 132.82 113.505 133.542 111.548C134.166 109.858 133.366 107.682 131.696 106.918C130.786 106.501 129.647 106.662 128.805 106.131C122.779 102.33 117.526 96.3109 113.368 90.5786C107.153 82.0103 101.723 73.6026 95.4651 65.0672C90.5556 58.3707 84.3705 51.611 79.1465 45.1469C78.9543 44.9091 78.5066 44.8513 78.1827 44.8847C75.8645 45.1235 75.8669 46.7586 77.1369 48.7283C77.7852 49.7338 77.8345 50.2062 78.5417 51.1745C79.9174 53.0579 81.6472 55.665 83.0174 57.5524C83.1628 57.4378 82.872 57.667 83.0174 57.5524C82.1615 56.5762 80.5875 55.5126 79.685 54.5817C77.9751 52.8185 76.8793 50.6487 74.9478 49.1647C74.1664 48.5642 71.997 49.177 70.8311 49.0767C70.9052 50.1898 71.4836 51.6034 71.9745 52.4838C72.904 54.1512 73.6196 55.836 74.784 57.3763C75.0882 57.7788 75.2353 58.1567 75.4864 58.5994C75.634 58.4967 75.3388 58.702 75.4864 58.5994C74.9859 58.103 74.33 57.6007 73.8202 57.1141C72.1882 55.5573 70.5365 54.118 68.8216 52.658C67.8527 51.8332 66.9122 50.6359 65.9301 51.8713C65.2227 52.761 64.7755 54.5423 64.8844 55.7149C64.9954 56.9105 65.432 58.0065 66.0277 59.122C67.939 62.7015 70.4053 66.5686 72.3491 70.1302ZM102.344 35.9782C105.162 38.5174 108.182 41.1583 110.675 43.405C110.566 43.5354 109.821 43.0123 109.712 43.1427C106.544 40.6971 103.584 37.8994 100.417 35.4537C100.315 35.5741 100.257 36.294 100.155 36.4146C102.255 38.5025 104.72 40.2681 106.82 42.356C105.577 41.9413 104.14 41.0914 103.226 40.3462C101.684 39.0891 100.574 38.2208 98.93 37.1133C97.9055 36.4231 96.64 35.919 95.7772 37.2875C96.4644 38.1154 97.2139 38.8732 98.1457 39.996C95.835 39.442 95.012 37.5635 92.3628 38.4226C94.4462 40.4682 96.2416 42.3127 98.0638 44.1018C97.9407 44.2284 97.2231 43.7129 97.1 43.8395C95.5418 42.5219 94.3935 41.8848 92.8038 40.6066C91.1427 39.2708 89.2347 38.8122 87.7233 40.2563C86.413 41.5082 86.3149 42.7101 87.6413 44.3621C91.5196 49.1923 96.2845 54.3166 100.187 59.1277C100.965 60.0873 101.789 60.8662 102.555 61.8361C102.411 61.9597 101.474 62.4111 101.33 62.5348C97.576 58.3284 93.9433 54.4219 90.1894 50.2155C90.2682 50.9313 90.5327 50.9727 90.8918 51.4386C98.8116 61.7152 106.719 72.2455 114.496 82.6293C119.138 88.8281 124.14 94.5911 130.896 98.4437C131.766 98.9397 133.771 99.1914 134.752 99.4926C134.849 99.2776 134.654 99.7078 134.752 99.4926C131.488 96.5677 127.197 93.856 125.016 89.6196C128.733 92.1264 131.878 94.1878 135.536 96.61C136.513 97.2568 138.089 97.8383 139.653 96.698C130.872 92.3467 123.759 86.2909 117.469 79.3101C118.055 79.6172 118.641 80.3829 119.135 80.7955C124.09 84.9308 128.354 88.9567 133.429 92.9406C134.895 94.0919 137.374 94.1215 139.212 94.514C140.001 94.6827 140.712 93.6953 141.662 93.1167C141.145 92.3917 140.945 91.1536 140.257 90.6704C137.097 88.4494 133.621 87.0964 130.44 84.9032C129.227 84.0672 128.245 82.8772 127.107 81.9325C127.942 82.0171 129.397 82.3407 129.999 82.7192C133.886 85.1635 137.532 87.6337 141.483 89.9718C143.209 90.9937 143.361 90.3564 143.933 88.5744C141.574 87.1927 139.128 85.9501 136.745 84.5548C138.899 85.2107 141.218 86.4747 143.231 87.3513C144.776 88.0243 146.054 87.5764 146.645 86.2162C147.352 84.5875 146.696 83.5644 145.502 82.8091C142.323 80.7991 138.841 79.0857 135.684 77.0418C137.069 77.3208 138.376 77.4563 139.539 78.0908C142.059 79.4643 145.113 81.1186 147.691 82.3726C148.202 82.6212 149.187 82.0625 149.88 81.9362C149.737 81.1753 149.864 80.2895 149.439 79.7522C148.937 79.1181 147.544 78.4652 146.809 78.0046C144.551 76.5908 141.873 75.4087 139.621 73.985C139.72 73.8266 140.487 74.4056 140.585 74.2472C141.92 74.9788 142.788 75.654 144.179 76.257C146.107 77.0926 147.929 77.3562 149.962 77.8304C150.722 78.008 153.12 77.3251 153.376 76.6953C153.896 75.4151 152.263 74.5457 151.008 73.9868C148.612 72.9208 145.905 72.1043 143.558 70.9281C143.634 70.7813 143.744 70.114 143.82 69.9672C146.604 71.0615 149.419 72.2753 152.233 73.2882C152.689 73.4523 153.861 72.9788 154.422 72.8518C154.168 72.2463 154.173 71.9686 153.719 71.6286C152.932 71.0381 152.006 70.2983 151.089 69.881C152.188 69.8003 153.081 70.2871 153.981 70.6677C155.404 71.2694 155.31 70.359 155.468 69.0082C155.72 66.8463 155.716 65.3746 153.622 64.3779C148.88 62.1218 143.765 59.4744 138.985 57.2995C138.948 57.3676 138.761 58.1923 138.724 58.2604C144.028 61.1797 149.389 63.7215 155.027 66.8242C154.341 67.0116 154.001 67.6227 153.801 67.5228C135.92 58.5608 119.763 46.6532 102.344 35.9782ZM82.686 134.864C83.975 132.672 83.9017 130.301 83.5523 127.875C82.6193 121.399 82.0624 115.183 79.3223 109.18C76.1402 102.209 72.9858 95.6201 69.3095 88.9116C66.7822 84.2996 64.7136 78.2082 60.8809 74.2341C58.8814 72.161 58.1772 68.733 56.9281 65.9344C56.7415 65.5166 56.4232 65.1243 56.2257 64.7113C56.4008 64.644 56.0505 64.7786 56.2257 64.7113C56.5055 65.972 56.8547 67.8132 57.1076 69.0794C57.3489 70.2872 57.0739 71.0109 57.2871 72.2243C57.4977 72.1876 57.0764 72.2609 57.2871 72.2243C56.6279 69.8917 55.6597 67.7426 55.0004 65.41C54.7868 65.4626 54.2502 65.0951 54.0366 65.1477C53.9531 70.1959 55.1406 76.1255 55.898 81.1345C54.8547 79.3616 54.2334 76.1925 53.6113 74.3202C53.7278 74.3339 53.5065 74.0046 53.6113 74.3202C51.1267 74.0275 52.2316 71.0051 51.7656 69.69C51.5087 68.9651 51.3528 68.3119 51.3247 67.506C51.5755 67.4884 51.0738 67.5235 51.3247 67.506C51.5255 69.5053 51.4828 71.7965 51.6837 73.7958C51.5044 73.8194 50.8991 73.5099 50.7199 73.5335C50.3267 72.0307 50.2311 70.6683 49.838 69.1655C49.6135 69.2142 48.8371 69.8153 48.6127 69.8642C49.1661 73.2477 50.2638 77.4007 50.8174 80.7843C50.5879 80.83 50.0831 80.4763 49.8536 80.522C49.159 77.861 48.7842 74.447 48.0898 71.786C47.9287 71.8063 47.2872 71.5032 47.126 71.5237C47.3804 73.0894 47.0635 76.2944 47.485 77.8135C50.3227 88.0412 53.1524 98.1222 54.6221 108.652C55.9418 118.108 57.2324 127.044 54.31 136.432C54.041 137.295 54.7197 139.366 55.4534 139.839C56.7229 140.657 57.8425 140.452 58.8677 138.704C60.0956 136.61 60.7015 134.361 60.6977 131.978C60.694 129.566 61.4358 127.401 61.564 124.989C62.8448 130.246 62.9715 135.211 60.5339 140.189C63.3367 140.651 63.5088 140.656 64.2096 138.093C64.5022 137.023 64.7292 136.288 64.994 135.21C65.2274 135.258 64.7605 135.163 64.994 135.21C64.7249 136.977 64.9336 138.42 64.6506 140.277C66.5217 140.256 67.1106 139.888 67.3625 137.919C67.5898 136.143 68.631 133.92 68.9312 132.154C69.1107 132.171 68.7517 132.136 68.9312 132.154C68.8717 134.446 69.0882 137.112 69.0287 139.404C69.1304 139.417 68.9271 139.391 69.0287 139.404C69.3101 138.113 69.793 136.852 70.0745 135.561C70.194 135.571 70.9188 135.812 71.0383 135.823C71.0631 136.942 71.1931 137.849 71.2178 138.968C71.4223 138.978 71.0133 138.958 71.2178 138.968C72.5645 135.721 72.3241 132.481 72.8683 129.097C73.0814 129.109 72.9168 128.123 73.1298 128.136C73.1762 131.319 73.3579 135.164 73.4069 138.531C76.3038 137.704 75.1812 134.961 76.9031 133.291C76.8163 134.77 76.908 135.917 76.8212 137.396C76.9651 137.473 76.6773 137.32 76.8212 137.396C77.1081 136.766 78.2603 136.384 78.3079 135.737C78.5228 132.808 78.5984 129.499 78.7332 126.564C78.9287 126.558 78.5377 126.571 78.7332 126.564C78.9856 129.801 79.9831 133.024 80.2355 136.261C82.3871 130.402 80.2084 124.493 79.8609 118.615C81.7121 123.87 83.2966 129.133 82.686 134.864ZM46.4043 119.832C46.4205 120.863 46.9206 121.443 46.8453 122.016C46.3794 125.567 45.5517 129.324 44.9333 132.849C44.6473 134.478 45.9351 135.096 47.3019 135.557C49.675 136.357 52.0478 134.822 52.4643 131.801C53.0913 127.255 52.9525 122.142 53.233 117.562C53.3992 114.849 53.5225 112.082 53.3968 109.351C53.1959 109.353 52.3724 110.047 52.1716 110.049C52.503 117.925 53.3207 125.793 50.0138 133.199C50.1772 129.76 50.436 126.489 50.7005 123.065C50.9666 119.621 51.7692 115.414 51.6487 111.971C51.528 108.52 50.5152 105.719 50.1464 102.274C49.7778 98.8311 49.3675 95.046 48.9055 91.6163C48.4561 88.2825 47.9791 85.2361 47.4031 81.9193C47.242 81.9529 46.6005 81.6236 46.4393 81.6571C46.7187 83.7288 47.4828 86.1375 47.7621 88.2092C47.5861 88.2421 46.9743 87.914 46.7983 87.9469C45.9653 84.1308 45.4266 80.843 44.5936 77.0268C44.2732 77.0536 43.9502 76.7376 43.6298 76.7646C43.6387 79.3739 43.457 82.3672 43.4659 84.9762C43.6387 84.9626 43.2932 84.9898 43.4659 84.9762C43.049 82.9843 42.5837 80.5295 42.1431 78.4242C41.963 79.6449 41.2615 81.1548 41.0973 82.2677C41.2583 82.2754 40.9364 82.2601 41.0973 82.2677C41.0168 80.9293 40.3215 79.6649 40.2154 77.8997C39.2645 80.6816 39.1903 82.2711 38.3854 84.626C38.1639 84.5547 37.6431 84.435 37.4216 84.3637C38.0524 81.8702 38.6208 80.131 39.2516 77.6375C37.091 81.6429 34.8783 85.3074 32.9615 89.3424C30.1524 95.256 28.025 100.954 25.1028 106.813C23.7047 109.615 22.2304 112.139 20.8222 114.936C20.0945 116.382 19.108 117.947 18.5512 119.478C18.893 119.621 19.1733 119.598 19.515 119.741C21.0068 116.464 22.5654 113.933 24.057 110.656C24.3529 110.797 24.725 110.777 25.0208 110.918C23.4799 114.664 21.4969 118.179 19.956 121.925C20.1409 122.021 20.7348 122.091 20.9198 122.187C23.3584 120.703 23.6178 118.069 25.6413 116.247C25.2062 118.201 23.7671 119.895 23.1089 121.75C22.698 122.908 21.6341 124.233 23.2884 124.895C23.8497 125.12 26.0391 123.537 26.9641 122.799C27.1057 122.687 27.1423 122.021 27.2256 121.839C28.2065 119.686 29.0393 117.528 30.0194 115.375C30.1906 115.421 29.8483 115.328 30.0194 115.375C29.0795 118.35 28.5319 122.081 27.4051 124.983C26.7892 126.57 27.186 126.782 28.8098 127.43C31.9084 128.666 34.8213 130.751 37.9251 131.974C39.1552 132.459 39.8225 131.806 40.3756 130.576C40.7269 129.796 40.9322 128.522 41.16 127.694C41.6098 126.057 42.0445 124.533 42.4671 122.889C42.7229 122.951 43.1751 123.09 43.4309 123.152C42.8807 125.709 41.8674 128.277 41.3395 130.839C41.1648 131.686 41.3275 132.944 42.7442 133.285C43.9174 133.567 44.0086 132.728 44.2309 131.625C45.0017 127.795 45.4442 124.145 46.4043 119.832ZM15.8586 72.3048C6.24847 72.1314 0.0791014 81.9018 1.95548 89.1626C2.84026 92.5863 5.04056 95.4726 6.61072 98.6853C7.47392 100.452 7.66558 99.9705 8.79978 98.2489C9.42491 97.2998 10.8476 96.8142 11.5117 95.8907C11.6845 96.0101 11.3388 95.7713 11.5117 95.8907C10.8106 97.1274 9.91154 98.1453 9.50216 99.472C9.1737 100.537 8.98881 103.398 9.42023 103.578C10.9676 104.223 11.5365 102.161 12.1322 101.22C13.2933 99.3835 14.453 97.8057 15.6284 95.9787C15.8143 96.0993 15.4426 95.8582 15.6284 95.9787C14.8213 97.4769 14.1055 98.9937 13.3574 100.521C11.6701 103.966 11.6079 103.816 12.0503 105.325C13.278 103.253 14.6051 101.154 15.8079 99.1236C16.0453 99.2474 16.5342 99.262 16.7718 99.3859C15.7373 101.658 14.7509 104.538 13.7165 106.811C13.9867 106.96 14.41 106.924 14.6803 107.073C16.927 103.15 18.7236 99.2907 20.9704 95.3681C21.1834 95.474 21.7212 95.5244 21.9342 95.6303C21.8136 96.0383 21.8659 96.2211 21.6728 96.5912C20.0068 99.7822 18.6247 103.495 16.8693 106.637C15.7838 108.579 15.3359 109.888 16.7874 110.742C18.0247 111.47 19.4116 110.585 20.4632 108.646C21.7017 106.364 23.0327 104.752 24.2209 102.445C27.8287 95.4408 31.53 88.7023 35.053 81.6552C35.5227 80.7158 35.9193 78.8468 36.0987 77.8117C36.1985 77.2362 35.5337 77.2049 35.3964 76.5885C34.7367 76.7843 34.5992 76.8595 34.1711 77.2872C33.1504 78.3072 32.0745 79.4484 31.1977 80.6063C30.6094 81.3833 30.0047 82.4247 29.4496 83.2268C29.444 79.9379 32.6419 77.9681 32.7663 74.841C32.5601 74.6967 33.234 74.0243 33.0278 73.8801C31.8794 74.8705 30.2389 75.9465 29.0906 76.9369C29.2636 75.8334 29.722 75.0345 29.8749 74.0543C29.9742 73.4171 29.8923 72.0157 29.4339 71.8702C28.3357 71.5216 26.3938 71.4657 25.3172 71.7822C21.0169 73.0459 17.6131 74.8553 14.2899 78.0701C13.8813 78.4656 13.5355 78.4377 13.0647 78.7688C15.0085 75.4127 17.9489 74.688 20.9391 72.6551C18.5017 73.3458 16.2161 73.6404 14.1104 74.9252C11.9767 76.2272 9.70085 77.8222 7.72273 79.3794C9.29887 75.9357 12.7861 74.2064 15.8586 72.3048ZM130.541 31.2655C136.257 31.0534 142.517 31.1311 148.233 30.919C148.232 30.6687 147.531 29.9461 147.531 29.6959C147.159 29.681 146.938 29.4309 146.567 29.4336C136.264 29.5096 125.598 29.9683 115.299 30.2147C112.856 30.2732 111.164 30.987 108.732 31.524C108.764 31.6376 108.7 31.4104 108.732 31.524C110.92 31.9333 113.291 32.9503 115.479 33.3596C115.446 33.5481 115.25 34.132 115.217 34.3205C112.359 34.17 109.14 33.0719 106.282 32.9213C106.238 33.0855 106.064 33.7181 106.02 33.8822C109.549 34.9188 113.468 36.1366 116.099 38.6885C116.02 38.8514 115.917 39.4868 115.838 39.6494C112.816 38.2744 109.745 36.4805 106.723 35.1053C106.625 35.2754 106.559 35.8962 106.461 36.0662C107.177 36.5854 107.385 37.0734 108.127 37.5516C109.524 38.4519 111.259 38.9695 112.685 39.8236C117.359 42.6241 122.276 45.2641 127.06 47.8629C131.047 50.0285 134.594 52.4713 138.806 54.1546C143.122 55.8799 147.565 57.5022 152.038 58.7868C152.974 59.0558 154.577 58.2735 155.452 57.6517C156.654 56.7975 156.426 55.9122 155.011 55.4677C153.805 55.0889 152.386 54.7131 151.156 54.4187C144.868 52.9139 138.608 50.817 132.402 47.2523C133.599 47.4852 134.683 47.8659 135.294 48.039C140.679 49.5641 146.286 51.0003 151.679 52.4969C152.753 52.795 153.488 53.3925 154.57 53.2836C155.169 53.2234 155.74 52.2453 156.057 51.6241C156.163 51.4149 155.895 50.6432 155.354 50.401C154.272 49.9155 152.652 49.6721 151.499 49.352C148.77 48.5944 145.558 47.7371 142.825 46.9919C143.631 46.7418 145.263 46.6944 145.978 46.8177C148.803 47.3056 150.851 48.5114 153.688 48.9156C154.271 48.9987 155.511 47.7429 156.139 47.5183C155.748 46.8051 155.057 46.5065 154.472 46.0329C153.971 45.6265 153.257 45.6795 152.545 45.5085C151.634 45.2899 150.557 44.9686 149.653 44.7218C149.679 44.5158 149.889 43.9668 149.915 43.7609C151.392 43.6874 152.575 44.0651 154.032 43.8489C154.62 43.7614 155.935 42.823 156.482 42.4516C156.009 41.9016 155.4 41.1363 154.816 40.9662C153.625 40.6193 151.957 40.9653 150.699 40.8782C148.104 40.6985 145.324 39.898 142.727 39.7412C146.735 38.6446 151.147 40.5989 155.339 39.0444C153.416 35.3091 149.572 37.4487 146.926 35.7235C148.824 35.5201 150.554 36.3876 152.006 36.0737C152.636 35.9377 152.927 34.8429 153.493 34.4142C152.832 34.1558 152.217 33.8686 151.565 33.8897C147.977 34.0066 144.731 34.0797 141.143 34.1501C138.935 34.1934 136.346 33.4212 134.135 33.2753C134.13 33.4497 134.139 33.101 134.135 33.2753C134.633 33.2229 135.825 32.8532 136.324 32.8389C140.852 32.7086 145.374 32.6035 149.899 32.4044C150.912 32.3598 151.086 32.2422 152.088 31.9679C152.044 31.6813 152.394 31.2937 152.35 31.007C145.085 32.0719 137.761 33.1609 130.541 31.2655ZM133.155 21.6566C133.159 21.8258 133.151 21.4874 133.155 21.6566C134.047 21.5493 134.451 21.3151 135.344 21.2202C138.981 20.8338 142.403 20.4763 146.028 19.9989C146.653 19.9167 147.898 19.0141 148.479 18.6016C147.9 17.982 146.519 16.9772 145.849 16.854C144.308 16.5706 143.321 16.7701 141.732 16.766C140.832 16.7635 139.479 16.9174 138.579 16.9402C140.488 16.0506 142.621 15.1665 144.444 14.4078C146.189 13.6815 146.896 12.3892 145.228 11.5251C144.291 11.0394 142.212 11.4916 141.112 11.437C139.416 11.3528 137.731 11.0799 136.031 11.0868C136.036 11.2637 136.027 10.9098 136.031 11.0868C137.459 10.8536 139.014 10.575 140.409 10.2139C141.034 10.0521 141.745 9.07257 141.896 8.55435C142.039 8.06322 141.612 7.84075 141.193 7.33123C140.838 6.89812 140.061 5.91222 139.527 5.84588C136.569 5.47848 134.265 5.71263 131.294 5.6698C129.2 5.63958 126.657 5.37967 124.024 5.75596C128.022 3.22478 132.129 3.18889 136.195 2.87516C130.771 1.00407 126.13 3.25733 121.835 6.19239C117.539 9.12826 114.091 12.6827 112.392 18.0715C114.711 17.7621 116.799 17.9762 118.698 17.7231C118.746 17.9423 118.65 17.504 118.698 17.7231C117.992 18.0201 117.904 19.0577 117.211 19.3827C115.652 20.1135 114.012 20.295 112.572 21.2164C112.014 21.5736 111.413 22.1586 111.085 22.876C111.796 22.9565 112.34 23.5261 113.013 23.4004C115.589 22.9194 118.243 21.9504 120.805 21.3925C120.868 21.596 121.445 22.4121 121.507 22.6156C118.394 24.3224 114.434 24.0975 111.967 27.244C113.184 27.4912 113.961 27.1141 115.12 27.0698C117.174 26.9912 119.371 26.8025 121.426 26.7214C127.79 26.4701 133.724 27.0155 140.081 26.6371C141.835 26.5327 144.05 25.7531 145.685 25.0656C146.53 24.7101 146.75 23.1884 147.433 22.4451C146.578 22.0879 146.368 21.942 145.505 21.9207C142.124 21.8377 138.468 22.1535 135.083 22.181C134.343 22.1871 133.895 21.6888 133.155 21.6566ZM134.408 104.559C134.548 104.307 134.268 104.812 134.408 104.559C133.259 104.099 132.882 103.362 131.778 102.812C125.286 99.5756 120.46 93.7016 116.08 88.2204C109.602 80.1142 103.249 71.66 96.9518 63.4077C92.9994 58.2286 88.8168 52.702 84.6679 47.6812C83.5321 46.3066 81.842 45.5465 80.3717 44.4483C80.507 44.2776 80.2365 44.619 80.3717 44.4483C80.788 44.941 81.6167 45.445 82.0379 45.9336C85.6844 50.1649 89.4936 54.8091 92.917 59.2138C100.351 68.7791 107.478 78.5633 115.116 87.9582C118.765 92.4458 122.787 96.7649 127.22 100.54C129.314 102.322 131.947 103.209 134.408 104.559ZM59.4605 60.4313C59.5931 60.3996 59.328 60.4631 59.4605 60.4313C59.6736 61.349 59.4863 61.8008 59.9014 62.6153C62.6266 67.9615 64.7996 74.8401 67.5457 80.1755C72.2755 89.3654 77.5541 98.3622 81.7728 107.783C85.8495 116.887 88.9036 126.258 88.4689 136.437C88.4522 136.832 88.0921 136.998 88.2075 137.398C88.3725 137.39 89.0064 137.669 89.1713 137.66C89.1972 136.991 88.7207 136.146 88.7304 135.476C88.8709 125.725 86.6593 116.79 82.7367 108.045C78.3451 98.2545 72.9024 87.8452 68.0686 78.2537C65.0505 72.2649 62.4923 66.4129 59.4605 60.4313Z" fill="#F1E6E2"></path></svg>